<svg width="100" height="100" viewBox="0 0 100 100" fill="none" xmlns="http://www.w3.org/2000/svg">
<circle cx="50" cy="50" r="50" fill="#D9D9D9"/>
<path d="M33.9924 33.0143C31.6494 32.7141 29.7451 32.5664 28.002 32.5575C26.8153 32.5486 25.8373 32.6053 24.9287 32.7357C16.0649 33.9842 10.644 38.2172 8.82265 45.3121C8.24472 47.4699 8.06648 49.3885 8.2968 51.0154C8.52712 52.6466 8.99665 54.1127 9.69649 55.3611C11.1267 57.9406 13.0526 59.0197 15.5823 58.6674C16.3952 58.554 16.791 58.2365 16.9866 57.8974C16.7432 57.8927 16.504 57.8711 16.2648 57.8275C13.9133 57.5231 12.2177 55.831 11.2613 52.8075C10.9658 52.0201 10.7571 51.211 10.644 50.4151C10.2617 47.6917 10.7266 44.9078 12.0221 42.1454C14.2393 37.2338 18.3863 34.3148 24.3504 33.4753C25.9762 33.245 27.5109 33.1489 28.9064 33.184C29.6888 33.2099 30.3319 33.2361 30.8362 33.2535C31.3535 33.2751 32.0754 33.336 32.9839 33.4363C33.8879 33.5363 34.5183 33.6103 34.8662 33.6493C34.9662 33.6624 35.0923 33.6798 35.2401 33.7014C35.1313 33.5058 35.0183 33.3233 34.901 33.1489C34.5966 33.1011 34.2968 33.0532 33.9924 33.0143Z" fill="black"/>
<mask id="mask0_210_378" style="mask-type:luminance" maskUnits="userSpaceOnUse" x="42" y="25" width="44" height="56">
<path d="M42.4568 25.2469H85.9182V80.8519H42.4568V25.2469Z" fill="white"/>
</mask>
<g mask="url(#mask0_210_378)">
<path d="M85.4703 28.39C85.1532 28.0984 84.74 27.929 84.2184 27.8723C81.4796 27.581 78.6628 29.0687 75.8415 32.2921C73.7157 34.7195 71.7508 37.6123 69.9641 40.9271C69.3121 42.1366 68.6864 43.4024 68.0822 44.7207C68.0822 44.7249 68.0776 44.7292 68.0776 44.7338C65.8171 49.6929 63.6783 54.7434 61.718 59.7461C59.7662 64.7315 58.0143 69.0424 56.5016 72.566C55.1667 75.6721 54.2581 77.0598 53.5845 77.6427C53.4846 77.7296 53.38 77.7951 53.267 77.8472C53.1586 77.8993 53.0455 77.9298 52.9325 77.9518C52.1848 78.0864 51.3241 77.6385 50.8503 77.0772C50.424 76.5725 50.1242 75.9637 49.8677 75.3588C49.4329 74.3411 49.12 73.2708 48.8376 72.2006C48.407 70.5563 48.0768 68.8858 47.7813 67.211C47.5637 65.9711 47.3681 64.7272 47.1898 63.483C47.1509 63.2045 47.1073 62.9259 47.0683 62.6478C47.0378 62.439 47.0073 62.2215 46.9811 62.0039C46.4595 58.1192 46.0425 53.2685 45.7338 47.5613C45.6466 45.956 45.5988 44.4336 45.5814 42.9587C45.5772 42.6281 45.5772 42.3017 45.5772 41.9757C45.5772 41.2708 45.586 40.5748 45.6034 39.8873C45.6424 38.3866 45.7338 36.8295 45.8769 35.2589L45.9163 34.8283L46.3511 34.8152C48.4896 34.7458 50.6894 34.4541 52.5629 33.3492C54.2192 32.3704 55.4626 30.5478 55.4148 28.5856C55.4148 28.5031 55.4101 28.4205 55.4016 28.338C55.3191 27.2589 54.7801 25.9279 53.7149 25.4884C52.9499 25.1709 52.0239 25.3013 51.2242 25.4016C50.4024 25.5015 49.5984 25.7319 48.855 26.093C47.6161 26.689 46.5683 27.6289 45.7554 28.7338C45.5683 28.9861 45.4078 29.2469 45.2512 29.5123C45.4032 29.5081 45.5467 29.5035 45.6902 29.4992C46.0857 29.4861 46.4553 29.4688 46.8029 29.4514C46.9553 29.4429 47.103 29.434 47.2465 29.4298C47.429 29.1165 47.6246 28.8121 47.855 28.5336C49.0201 27.1022 50.9719 26.2323 52.8195 26.289C53.7411 26.3148 54.3538 26.8588 54.4541 27.7724C54.4973 28.1813 54.4626 28.6076 54.4016 28.9294C53.9194 31.483 51.4414 33.397 48.9985 33.919C48.255 34.0756 47.4553 34.1844 46.5552 34.2496L45.9641 34.2932L46.0598 33.4622C46.0683 33.3839 46.0772 33.3013 46.0857 33.223C46.1771 32.3877 46.3553 31.5351 46.6466 30.7261C46.5073 30.7392 46.3685 30.7523 46.2381 30.7697C45.7554 30.826 45.3295 30.8958 44.9556 30.9826C44.7948 31.0174 44.647 31.0567 44.5077 31.1003C44.1732 31.9961 43.934 32.9317 43.7384 33.88L43.6513 34.2932L43.2296 34.2716C43.0733 34.2627 42.9167 34.2496 42.7558 34.2411C42.7689 34.3063 42.7732 34.3627 42.7905 34.4325C42.7905 34.4367 42.7905 34.441 42.7952 34.4456C42.8168 34.5498 42.8515 34.6628 42.8777 34.7716C42.9209 34.7762 42.9645 34.7805 43.0081 34.7847L43.5513 34.8194L43.4209 35.559C43.4036 35.6462 43.3904 35.7288 43.3777 35.8156C43.3604 35.9333 43.3426 36.0505 43.3252 36.1682C43.2905 36.3943 43.2558 36.6292 43.2253 36.86C42.9861 38.5694 42.8036 40.4009 42.6775 42.441C42.6169 43.4155 42.5864 44.4074 42.5517 45.3646C42.5344 45.843 42.5212 46.3214 42.4996 46.8002C42.4734 48.1138 42.4692 49.4144 42.4865 50.7064C42.4908 51.037 42.495 51.3634 42.5039 51.6894C42.5907 55.9483 42.9082 60.0725 43.4603 63.9961C44.1165 68.6728 45.2423 72.7967 46.8075 76.255C47.529 77.8561 48.5374 79.7049 50.2026 80.4877C50.6416 80.6921 51.2458 80.8576 51.7327 80.7967C52.5066 80.6968 53.1239 80.1701 53.6192 79.5914C53.706 79.4915 53.789 79.3916 53.8669 79.2913C53.88 79.2739 53.8889 79.2612 53.902 79.2434C54.3411 78.6694 54.7365 78.0602 55.1061 77.434C55.2581 77.1771 55.4059 76.9163 55.5494 76.6551C55.684 76.4117 55.8102 76.1636 55.9364 75.9159C56.1624 75.4765 56.3928 75.0197 56.6231 74.554C58.262 71.2434 59.9834 67.2805 61.7485 62.7434C63.7697 57.5579 65.9692 52.2897 68.2905 47.0914C70.625 41.8627 73.3985 37.4429 76.5371 33.9583C79.5367 30.6262 82.6883 28.9904 85.9182 29.086C85.8052 28.7901 85.6574 28.5598 85.4703 28.39Z" fill="black"/>
</g>
<path d="M54.38 79.2261L54.4062 79.1566C54.3889 79.1782 54.3711 79.2045 54.3538 79.2261H54.38Z" fill="black"/>
<path d="M71.9641 29.9475C69.3252 29.9475 66.6778 29.8819 64.0825 29.7558V30.2867C66.0868 30.3738 67.5733 30.7392 68.6165 31.4005C69.7816 32.1443 70.373 33.336 70.373 34.9456C70.373 36.3291 69.8904 38.2735 68.8993 40.8924L64.9957 50.789C65.8865 48.7099 66.7997 46.6347 67.7384 44.5772C68.373 43.1848 69.0339 41.8538 69.7253 40.5837L71.2727 36.6902C72.6551 33.1971 74.5679 31.0741 76.9544 30.3692V29.7689C75.5806 29.8866 73.9027 29.9475 71.9641 29.9475Z" fill="black"/>
<path d="M46.103 47.544C46.429 53.5602 46.8769 58.6238 47.4332 62.5999C47.4768 62.9043 47.5204 63.1914 47.5594 63.483L53.1238 77.495C53.1975 77.4556 53.2716 77.4167 53.3368 77.36C54.0714 76.7249 55.0189 75.0633 56.1535 72.4225C56.2839 72.1138 56.4232 71.7917 56.5579 71.4699L45.9641 43.9769C45.99 45.125 46.0378 46.3129 46.103 47.544Z" fill="black"/>
<path d="M46.7944 30.3476C46.929 30.3345 47.0726 30.326 47.2161 30.3129C47.2944 30.3083 47.3638 30.2998 47.4422 30.2955V29.7604C47.316 29.7689 47.1856 29.7735 47.051 29.782C46.9117 29.7909 46.7728 29.7951 46.6293 29.8036C46.2728 29.8214 45.8901 29.8341 45.4857 29.8518C45.3426 29.8561 45.1945 29.8603 45.0467 29.8646C44.9078 29.8692 44.7685 29.8735 44.6208 29.8777C42.9514 29.9213 40.9433 29.9475 38.6177 29.9475C35.6439 29.9475 33.1925 29.8866 31.3145 29.7647V30.3083C32.8056 30.4954 34.066 31.3264 35.0834 32.7882C35.179 32.9228 35.2701 33.0621 35.3573 33.2099C35.4661 33.3885 35.5702 33.571 35.6744 33.767C35.7442 33.9016 35.8179 34.0366 35.8831 34.1802C36.0178 34.463 36.1528 34.7585 36.2743 35.0718L37.0004 36.8989L40.865 46.6258L42.0996 49.7319C42.0953 48.7531 42.0996 47.7658 42.1212 46.7739C42.1385 46.3129 42.1559 45.8646 42.169 45.4124L42.1732 45.3341C42.2037 44.3553 42.2385 43.3677 42.2994 42.3978C42.4429 40.0876 42.6559 38.0343 42.9472 36.1335C42.9209 36.0594 42.6952 35.407 42.6254 35.1674C42.6254 35.1632 42.6254 35.1632 42.6254 35.1589C42.6212 35.137 42.6169 35.1196 42.6123 35.1022C42.5733 34.9676 42.5428 34.8457 42.5124 34.7195C42.495 34.6454 42.4692 34.5671 42.456 34.4934C42.456 34.4888 42.4518 34.4803 42.4518 34.4761C42.4298 34.38 42.4213 34.2932 42.404 34.2018C42.3866 34.1061 42.3646 34.0062 42.3561 33.9147C42.3515 33.8843 42.3472 33.8538 42.343 33.8191V33.8148C42.3256 33.6408 42.3125 33.4753 42.3125 33.3187C42.3125 32.2095 42.8125 31.4005 43.7643 30.9784C43.8993 30.9174 44.0556 30.8607 44.2165 30.8086C44.3557 30.7608 44.5077 30.7172 44.6686 30.6782C44.8121 30.6435 44.9641 30.6084 45.125 30.5737C45.4989 30.5 45.9163 30.4344 46.3816 30.3866C46.512 30.3781 46.6509 30.3607 46.7944 30.3476Z" fill="black"/>
<path d="M33.9924 33.0143C31.6494 32.7141 29.7451 32.5664 28.002 32.5575C26.8153 32.5486 25.8373 32.6053 24.9287 32.7357C16.0649 33.9842 10.644 38.2172 8.82265 45.3121C8.24472 47.4699 8.06648 49.3885 8.2968 51.0154C8.52712 52.6466 8.99665 54.1127 9.69649 55.3611C11.1267 57.9406 13.0526 59.0197 15.5823 58.6674C16.3952 58.554 16.791 58.2365 16.9866 57.8974C16.7432 57.8927 16.504 57.8711 16.2648 57.8275C13.9133 57.5231 12.2177 55.831 11.2613 52.8075C10.9658 52.0201 10.7571 51.211 10.644 50.4151C10.2617 47.6917 10.7266 44.9078 12.0221 42.1454C14.2393 37.2338 18.3863 34.3148 24.3504 33.4753C25.9762 33.245 27.5109 33.1489 28.9064 33.184C29.6888 33.2099 30.3319 33.2361 30.8362 33.2535C31.3535 33.2751 32.0754 33.336 32.9839 33.4363C33.8879 33.5363 34.5183 33.6103 34.8662 33.6493C34.9662 33.6624 35.0923 33.6798 35.2401 33.7014C35.1313 33.5058 35.0183 33.3233 34.901 33.1489C34.5966 33.1011 34.2968 33.0532 33.9924 33.0143Z" fill="black"/>
<mask id="mask1_210_378" style="mask-type:luminance" maskUnits="userSpaceOnUse" x="42" y="25" width="44" height="56">
<path d="M42.4568 25.2469H85.9182V80.8519H42.4568V25.2469Z" fill="white"/>
</mask>
<g mask="url(#mask1_210_378)">
<path d="M85.4703 28.39C85.1532 28.0984 84.74 27.929 84.2184 27.8723C81.4796 27.581 78.6628 29.0687 75.8415 32.2921C73.7157 34.7195 71.7508 37.6123 69.9641 40.9271C69.3121 42.1366 68.6864 43.4024 68.0822 44.7207C68.0822 44.7249 68.0776 44.7292 68.0776 44.7338C65.8171 49.6929 63.6783 54.7434 61.718 59.7461C59.7662 64.7315 58.0143 69.0424 56.5016 72.566C55.1667 75.6721 54.2581 77.0598 53.5845 77.6427C53.4846 77.7296 53.38 77.7951 53.267 77.8472C53.1586 77.8993 53.0455 77.9298 52.9325 77.9518C52.1848 78.0864 51.3241 77.6385 50.8503 77.0772C50.424 76.5725 50.1242 75.9637 49.8677 75.3588C49.4329 74.3411 49.12 73.2708 48.8376 72.2006C48.407 70.5563 48.0768 68.8858 47.7813 67.211C47.5637 65.9711 47.3681 64.7272 47.1898 63.483C47.1509 63.2045 47.1073 62.9259 47.0683 62.6478C47.0378 62.439 47.0073 62.2215 46.9811 62.0039C46.4595 58.1192 46.0425 53.2685 45.7338 47.5613C45.6466 45.956 45.5988 44.4336 45.5814 42.9587C45.5772 42.6281 45.5772 42.3017 45.5772 41.9757C45.5772 41.2708 45.586 40.5748 45.6034 39.8873C45.6424 38.3866 45.7338 36.8295 45.8769 35.2589L45.9163 34.8283L46.3511 34.8152C48.4896 34.7458 50.6894 34.4541 52.5629 33.3492C54.2192 32.3704 55.4626 30.5478 55.4148 28.5856C55.4148 28.5031 55.4101 28.4205 55.4016 28.338C55.3191 27.2589 54.7801 25.9279 53.7149 25.4884C52.9499 25.1709 52.0239 25.3013 51.2242 25.4016C50.4024 25.5015 49.5984 25.7319 48.855 26.093C47.6161 26.689 46.5683 27.6289 45.7554 28.7338C45.5683 28.9861 45.4078 29.2469 45.2512 29.5123C45.4032 29.5081 45.5467 29.5035 45.6902 29.4992C46.0857 29.4861 46.4553 29.4688 46.8029 29.4514C46.9553 29.4429 47.103 29.434 47.2465 29.4298C47.429 29.1165 47.6246 28.8121 47.855 28.5336C49.0201 27.1022 50.9719 26.2323 52.8195 26.289C53.7411 26.3148 54.3538 26.8588 54.4541 27.7724C54.4973 28.1813 54.4626 28.6076 54.4016 28.9294C53.9194 31.483 51.4414 33.397 48.9985 33.919C48.255 34.0756 47.4553 34.1844 46.5552 34.2496L45.9641 34.2932L46.0598 33.4622C46.0683 33.3839 46.0772 33.3013 46.0857 33.223C46.1771 32.3877 46.3553 31.5351 46.6466 30.7261C46.5073 30.7392 46.3685 30.7523 46.2381 30.7697C45.7554 30.826 45.3295 30.8958 44.9556 30.9826C44.7948 31.0174 44.647 31.0567 44.5077 31.1003C44.1732 31.9961 43.934 32.9317 43.7384 33.88L43.6513 34.2932L43.2296 34.2716C43.0733 34.2627 42.9167 34.2496 42.7558 34.2411C42.7689 34.3063 42.7732 34.3627 42.7905 34.4325C42.7905 34.4367 42.7905 34.441 42.7952 34.4456C42.8168 34.5498 42.8515 34.6628 42.8777 34.7716C42.9209 34.7762 42.9645 34.7805 43.0081 34.7847L43.5513 34.8194L43.4209 35.559C43.4036 35.6462 43.3904 35.7288 43.3777 35.8156C43.3604 35.9333 43.3426 36.0505 43.3252 36.1682C43.2905 36.3943 43.2558 36.6292 43.2253 36.86C42.9861 38.5694 42.8036 40.4009 42.6775 42.441C42.6169 43.4155 42.5864 44.4074 42.5517 45.3646C42.5344 45.843 42.5212 46.3214 42.4996 46.8002C42.4734 48.1138 42.4692 49.4144 42.4865 50.7064C42.4908 51.037 42.495 51.3634 42.5039 51.6894C42.5907 55.9483 42.9082 60.0725 43.4603 63.9961C44.1165 68.6728 45.2423 72.7967 46.8075 76.255C47.529 77.8561 48.5374 79.7049 50.2026 80.4877C50.6416 80.6921 51.2458 80.8576 51.7327 80.7967C52.5066 80.6968 53.1239 80.1701 53.6192 79.5914C53.706 79.4915 53.789 79.3916 53.8669 79.2913C53.88 79.2739 53.8889 79.2612 53.902 79.2434C54.3411 78.6694 54.7365 78.0602 55.1061 77.434C55.2581 77.1771 55.4059 76.9163 55.5494 76.6551C55.684 76.4117 55.8102 76.1636 55.9364 75.9159C56.1624 75.4765 56.3928 75.0197 56.6231 74.554C58.262 71.2434 59.9834 67.2805 61.7485 62.7434C63.7697 57.5579 65.9692 52.2897 68.2905 47.0914C70.625 41.8627 73.3985 37.4429 76.5371 33.9583C79.5367 30.6262 82.6883 28.9904 85.9182 29.086C85.8052 28.7901 85.6574 28.5598 85.4703 28.39Z" fill="black"/>
</g>
<path d="M54.38 79.2261L54.4062 79.1566C54.3889 79.1782 54.3711 79.2045 54.3538 79.2261H54.38Z" fill="black"/>
<path d="M71.9641 29.9475C69.3252 29.9475 66.6778 29.8819 64.0825 29.7558V30.2867C66.0868 30.3738 67.5733 30.7392 68.6165 31.4005C69.7816 32.1443 70.373 33.336 70.373 34.9456C70.373 36.3291 69.8904 38.2735 68.8993 40.8924L64.9957 50.789C65.8865 48.7099 66.7997 46.6347 67.7384 44.5772C68.373 43.1848 69.0339 41.8538 69.7253 40.5837L71.2727 36.6902C72.6551 33.1971 74.5679 31.0741 76.9544 30.3692V29.7689C75.5806 29.8866 73.9027 29.9475 71.9641 29.9475Z" fill="black"/>
<path d="M46.103 47.544C46.429 53.5602 46.8769 58.6238 47.4332 62.5999C47.4768 62.9043 47.5204 63.1914 47.5594 63.483L53.1238 77.495C53.1975 77.4556 53.2716 77.4167 53.3368 77.36C54.0714 76.7249 55.0189 75.0633 56.1535 72.4225C56.2839 72.1138 56.4232 71.7917 56.5579 71.4699L45.9641 43.9769C45.99 45.125 46.0378 46.3129 46.103 47.544Z" fill="black"/>
<path d="M46.7944 30.3476C46.929 30.3345 47.0726 30.326 47.2161 30.3129C47.2944 30.3083 47.3638 30.2998 47.4422 30.2955V29.7604C47.316 29.7689 47.1856 29.7735 47.051 29.782C46.9117 29.7909 46.7728 29.7951 46.6293 29.8036C46.2728 29.8214 45.8901 29.8341 45.4857 29.8518C45.3426 29.8561 45.1945 29.8603 45.0467 29.8646C44.9078 29.8692 44.7685 29.8735 44.6208 29.8777C42.9514 29.9213 40.9433 29.9475 38.6177 29.9475C35.6439 29.9475 33.1925 29.8866 31.3145 29.7647V30.3083C32.8056 30.4954 34.066 31.3264 35.0834 32.7882C35.179 32.9228 35.2701 33.0621 35.3573 33.2099C35.4661 33.3885 35.5702 33.571 35.6744 33.767C35.7442 33.9016 35.8179 34.0366 35.8831 34.1802C36.0178 34.463 36.1528 34.7585 36.2743 35.0718L37.0004 36.8989L40.865 46.6258L42.0996 49.7319C42.0953 48.7531 42.0996 47.7658 42.1212 46.7739C42.1385 46.3129 42.1559 45.8646 42.169 45.4124L42.1732 45.3341C42.2037 44.3553 42.2385 43.3677 42.2994 42.3978C42.4429 40.0876 42.6559 38.0343 42.9472 36.1335C42.9209 36.0594 42.6952 35.407 42.6254 35.1674C42.6254 35.1632 42.6254 35.1632 42.6254 35.1589C42.6212 35.137 42.6169 35.1196 42.6123 35.1022C42.5733 34.9676 42.5428 34.8457 42.5124 34.7195C42.495 34.6454 42.4692 34.5671 42.456 34.4934C42.456 34.4888 42.4518 34.4803 42.4518 34.4761C42.4298 34.38 42.4213 34.2932 42.404 34.2018C42.3866 34.1061 42.3646 34.0062 42.3561 33.9147C42.3515 33.8843 42.3472 33.8538 42.343 33.8191V33.8148C42.3256 33.6408 42.3125 33.4753 42.3125 33.3187C42.3125 32.2095 42.8125 31.4005 43.7643 30.9784C43.8993 30.9174 44.0556 30.8607 44.2165 30.8086C44.3557 30.7608 44.5077 30.7172 44.6686 30.6782C44.8121 30.6435 44.9641 30.6084 45.125 30.5737C45.4989 30.5 45.9163 30.4344 46.3816 30.3866C46.512 30.3781 46.6509 30.3607 46.7944 30.3476Z" fill="black"/>
</svg>
