<svg width="40" height="40" viewBox="0 0 40 40" fill="none" xmlns="http://www.w3.org/2000/svg">
<path d="M20 27.5C15.8579 27.5 12.5 24.1421 12.5 20C12.5 15.8579 15.8579 12.5 20 12.5C24.1421 12.5 27.5 15.8579 27.5 20C27.5 24.1421 24.1421 27.5 20 27.5ZM20 30C25.5228 30 30 25.5228 30 20C30 14.4772 25.5228 10 20 10C14.4772 10 10 14.4772 10 20C10 25.5228 14.4772 30 20 30Z" fill="#A839FF"/>
<path d="M20 0C20.6904 0 21.25 0.559644 21.25 1.25V6.25C21.25 6.94036 20.6904 7.5 20 7.5C19.3096 7.5 18.75 6.94036 18.75 6.25V1.25C18.75 0.559644 19.3096 0 20 0Z" fill="#A839FF"/>
<path d="M20 32.5C20.6904 32.5 21.25 33.0596 21.25 33.75V38.75C21.25 39.4404 20.6904 40 20 40C19.3096 40 18.75 39.4404 18.75 38.75V33.75C18.75 33.0596 19.3096 32.5 20 32.5Z" fill="#A839FF"/>
<path d="M40 20C40 20.6904 39.4404 21.25 38.75 21.25H33.75C33.0596 21.25 32.5 20.6904 32.5 20C32.5 19.3096 33.0596 18.75 33.75 18.75H38.75C39.4404 18.75 40 19.3096 40 20Z" fill="#A839FF"/>
<path d="M7.5 20C7.5 20.6904 6.94036 21.25 6.25 21.25H1.25C0.559644 21.25 -3.01764e-08 20.6904 0 20C3.01764e-08 19.3096 0.559644 18.75 1.25 18.75H6.25C6.94036 18.75 7.5 19.3096 7.5 20Z" fill="#A839FF"/>
<path d="M34.1421 5.85794C34.6303 6.3461 34.6303 7.13756 34.1421 7.62571L30.6066 11.1612C30.1184 11.6494 29.327 11.6494 28.8388 11.1612C28.3507 10.6731 28.3507 9.88163 28.8388 9.39348L32.3744 5.85794C32.8625 5.36979 33.654 5.36979 34.1421 5.85794Z" fill="#A839FF"/>
<path d="M11.1612 28.8389C11.6493 29.3271 11.6493 30.1185 11.1612 30.6067L7.62563 34.1422C7.13747 34.6304 6.34602 34.6304 5.85786 34.1422C5.3697 33.6541 5.3697 32.8626 5.85786 32.3744L9.39339 28.8389C9.88155 28.3508 10.673 28.3508 11.1612 28.8389Z" fill="#A839FF"/>
<path d="M34.1421 34.1422C33.654 34.6304 32.8625 34.6304 32.3744 34.1422L28.8388 30.6067C28.3507 30.1186 28.3507 29.3271 28.8388 28.8389C29.327 28.3508 30.1184 28.3508 30.6066 28.8389L34.1421 32.3745C34.6303 32.8626 34.6303 33.6541 34.1421 34.1422Z" fill="#A839FF"/>
<path d="M11.1612 11.1613C10.673 11.6494 9.88155 11.6494 9.3934 11.1613L5.85786 7.62574C5.36971 7.13758 5.36971 6.34613 5.85786 5.85797C6.34602 5.36982 7.13748 5.36982 7.62563 5.85797L11.1612 9.39351C11.6493 9.88166 11.6493 10.6731 11.1612 11.1613Z" fill="#A839FF"/>
</svg>
