<svg xmlns="http://www.w3.org/2000/svg" xmlns:xlink="http://www.w3.org/1999/xlink" width="1080" zoomAndPan="magnify" viewBox="0 0 810 809.999993" height="1080" preserveAspectRatio="xMidYMid meet" version="1.0"><defs><clipPath id="4265e77ea0"><path d="M 359 124 L 799.046875 124 L 799.046875 687 L 359 687 Z M 359 124 " clip-rule="nonzero"/></clipPath><clipPath id="182bb751b0"><path d="M 359 124 L 799.046875 124 L 799.046875 687 L 359 687 Z M 359 124 " clip-rule="nonzero"/></clipPath></defs><path fill="#000000" d="M 273.296875 202.644531 C 249.574219 199.605469 230.292969 198.109375 212.644531 198.019531 C 200.628906 197.929688 190.726562 198.503906 181.527344 199.824219 C 91.78125 212.464844 36.894531 255.324219 18.453125 327.160156 C 12.601562 349.007812 10.796875 368.433594 13.128906 384.90625 C 15.460938 401.421875 20.214844 416.265625 27.300781 428.90625 C 41.78125 455.023438 61.28125 465.949219 86.894531 462.382812 C 95.125 461.234375 99.132812 458.019531 101.113281 454.585938 C 98.648438 454.539062 96.226562 454.320312 93.804688 453.878906 C 69.996094 450.796875 52.828125 433.664062 43.144531 403.050781 C 40.152344 395.078125 38.039062 386.886719 36.894531 378.828125 C 33.023438 351.253906 37.730469 323.066406 50.847656 295.097656 C 73.296875 245.367188 115.285156 215.8125 175.671875 207.3125 C 192.132812 204.980469 207.671875 204.007812 221.800781 204.363281 C 229.722656 204.625 236.234375 204.890625 241.339844 205.066406 C 246.578125 205.285156 253.886719 205.902344 263.085938 206.917969 C 272.238281 207.929688 278.621094 208.679688 282.144531 209.074219 C 283.15625 209.207031 284.433594 209.382812 285.929688 209.601562 C 284.828125 207.621094 283.683594 205.773438 282.496094 204.007812 C 279.414062 203.523438 276.378906 203.039062 273.296875 202.644531 Z M 273.296875 202.644531 " fill-opacity="1" fill-rule="nonzero"/><g clip-path="url(#4265e77ea0)"><path fill="#000000" d="M 794.511719 155.824219 C 791.300781 152.871094 787.117188 151.15625 781.835938 150.582031 C 754.105469 147.632812 725.585938 162.695312 697.019531 195.332031 C 675.496094 219.910156 655.601562 249.199219 637.511719 282.761719 C 630.910156 295.007812 624.574219 307.824219 618.457031 321.171875 C 618.457031 321.214844 618.410156 321.257812 618.410156 321.304688 C 595.523438 371.515625 573.867188 422.652344 554.019531 473.304688 C 534.257812 523.78125 516.519531 567.429688 501.203125 603.105469 C 487.6875 634.554688 478.488281 648.605469 471.667969 654.507812 C 470.65625 655.386719 469.597656 656.050781 468.453125 656.578125 C 467.355469 657.105469 466.210938 657.414062 465.066406 657.636719 C 457.496094 659 448.78125 654.464844 443.984375 648.78125 C 439.667969 643.671875 436.632812 637.507812 434.035156 631.382812 C 429.632812 621.078125 426.464844 610.242188 423.605469 599.40625 C 419.246094 582.757812 415.902344 565.84375 412.910156 548.886719 C 410.707031 536.332031 408.726562 523.738281 406.921875 511.140625 C 406.527344 508.320312 406.085938 505.5 405.691406 502.683594 C 405.382812 500.570312 405.074219 498.367188 404.808594 496.164062 C 399.527344 456.832031 395.304688 407.71875 392.179688 349.933594 C 391.296875 333.679688 390.8125 318.265625 390.636719 303.332031 C 390.59375 299.984375 390.59375 296.679688 390.59375 293.378906 C 390.59375 286.242188 390.683594 279.195312 390.859375 272.234375 C 391.253906 257.039062 392.179688 241.273438 393.628906 225.371094 L 394.027344 221.011719 L 398.429688 220.878906 C 420.082031 220.175781 442.355469 217.222656 461.324219 206.035156 C 478.09375 196.125 490.683594 177.671875 490.199219 157.804688 C 490.199219 156.96875 490.152344 156.132812 490.066406 155.296875 C 489.230469 144.371094 483.773438 130.894531 472.988281 126.445312 C 465.242188 123.230469 455.867188 124.550781 447.769531 125.566406 C 439.449219 126.578125 431.308594 128.910156 423.78125 132.566406 C 411.238281 138.601562 400.628906 148.117188 392.398438 159.304688 C 390.503906 161.859375 388.878906 164.5 387.292969 167.1875 C 388.832031 167.144531 390.285156 167.097656 391.738281 167.054688 C 395.742188 166.921875 399.484375 166.746094 403.003906 166.570312 C 404.546875 166.484375 406.042969 166.394531 407.496094 166.351562 C 409.34375 163.179688 411.324219 160.097656 413.65625 157.277344 C 425.453125 142.785156 445.214844 133.976562 463.921875 134.550781 C 473.253906 134.8125 479.457031 140.320312 480.472656 149.570312 C 480.910156 153.710938 480.558594 158.027344 479.941406 161.285156 C 475.058594 187.140625 449.96875 206.519531 425.234375 211.804688 C 417.707031 213.390625 409.609375 214.492188 400.496094 215.152344 L 394.511719 215.59375 L 395.480469 207.179688 C 395.566406 206.386719 395.65625 205.550781 395.742188 204.757812 C 396.667969 196.300781 398.472656 187.667969 401.421875 179.476562 C 400.011719 179.609375 398.605469 179.742188 397.285156 179.917969 C 392.398438 180.488281 388.085938 181.195312 384.300781 182.074219 C 382.671875 182.425781 381.175781 182.824219 379.765625 183.265625 C 376.378906 192.335938 373.957031 201.808594 371.976562 211.410156 L 371.09375 215.59375 L 366.824219 215.375 C 365.242188 215.285156 363.65625 215.152344 362.027344 215.066406 C 362.160156 215.726562 362.203125 216.296875 362.378906 217.003906 C 362.378906 217.046875 362.378906 217.089844 362.425781 217.136719 C 362.644531 218.191406 362.996094 219.335938 363.261719 220.4375 C 363.699219 220.484375 364.140625 220.527344 364.582031 220.570312 L 370.082031 220.921875 L 368.761719 228.410156 C 368.585938 229.292969 368.453125 230.128906 368.324219 231.007812 C 368.148438 232.199219 367.96875 233.386719 367.792969 234.578125 C 367.441406 236.867188 367.089844 239.246094 366.78125 241.582031 C 364.359375 258.890625 362.511719 277.433594 361.234375 298.089844 C 360.621094 307.957031 360.3125 318 359.960938 327.691406 C 359.785156 332.535156 359.652344 337.378906 359.433594 342.226562 C 359.167969 355.527344 359.125 368.695312 359.300781 381.777344 C 359.34375 385.125 359.386719 388.429688 359.476562 391.730469 C 360.355469 434.851562 363.570312 476.609375 369.160156 516.335938 C 375.804688 563.6875 387.203125 605.441406 403.050781 640.457031 C 410.355469 656.667969 420.566406 675.386719 437.425781 683.3125 C 441.871094 685.382812 447.988281 687.058594 452.917969 686.441406 C 460.753906 685.429688 467.003906 680.097656 472.019531 674.238281 C 472.898438 673.226562 473.738281 672.214844 474.527344 671.199219 C 474.660156 671.023438 474.75 670.894531 474.882812 670.714844 C 479.328125 664.902344 483.332031 658.734375 487.074219 652.394531 C 488.613281 649.792969 490.109375 647.152344 491.5625 644.507812 C 492.925781 642.042969 494.203125 639.53125 495.480469 637.023438 C 497.769531 632.574219 500.101562 627.949219 502.433594 623.234375 C 519.027344 589.714844 536.457031 549.589844 554.328125 503.652344 C 574.792969 451.148438 597.0625 397.808594 620.566406 345.175781 C 644.203125 292.234375 672.285156 247.484375 704.0625 212.203125 C 734.433594 178.464844 766.34375 161.902344 799.046875 162.871094 C 797.902344 159.875 796.40625 157.542969 794.511719 155.824219 Z M 794.511719 155.824219 " fill-opacity="1" fill-rule="nonzero"/></g><path fill="#000000" d="M 479.722656 670.539062 L 479.988281 669.835938 C 479.8125 670.054688 479.632812 670.320312 479.457031 670.539062 Z M 479.722656 670.539062 " fill-opacity="1" fill-rule="nonzero"/><path fill="#000000" d="M 657.761719 171.59375 C 631.042969 171.59375 604.238281 170.929688 577.960938 169.652344 L 577.960938 175.027344 C 598.253906 175.910156 613.304688 179.609375 623.867188 186.304688 C 635.664062 193.835938 641.652344 205.902344 641.652344 222.199219 C 641.652344 236.207031 636.765625 255.894531 626.730469 282.410156 L 587.207031 382.613281 C 596.226562 361.5625 605.472656 340.550781 614.976562 319.71875 C 621.402344 305.621094 628.09375 292.144531 635.09375 279.285156 L 650.761719 239.863281 C 664.757812 204.496094 684.125 183 708.289062 175.863281 L 708.289062 169.785156 C 694.378906 170.976562 677.390625 171.59375 657.761719 171.59375 Z M 657.761719 171.59375 " fill-opacity="1" fill-rule="nonzero"/><path fill="#000000" d="M 395.917969 349.757812 C 399.21875 410.671875 403.753906 461.941406 409.386719 502.199219 C 409.828125 505.28125 410.269531 508.1875 410.664062 511.140625 L 467.003906 653.011719 C 467.75 652.613281 468.5 652.21875 469.160156 651.644531 C 476.597656 645.214844 486.191406 628.390625 497.679688 601.652344 C 499 598.527344 500.410156 595.265625 501.773438 592.007812 L 394.511719 313.640625 C 394.773438 325.265625 395.257812 337.292969 395.917969 349.757812 Z M 395.917969 349.757812 " fill-opacity="1" fill-rule="nonzero"/><path fill="#000000" d="M 402.917969 175.644531 C 404.28125 175.511719 405.734375 175.425781 407.1875 175.292969 C 407.980469 175.246094 408.683594 175.160156 409.476562 175.117188 L 409.476562 169.699219 C 408.199219 169.785156 406.878906 169.832031 405.515625 169.917969 C 404.105469 170.007812 402.699219 170.050781 401.246094 170.136719 C 397.636719 170.316406 393.761719 170.445312 389.667969 170.625 C 388.21875 170.667969 386.71875 170.710938 385.222656 170.753906 C 383.816406 170.800781 382.40625 170.84375 380.910156 170.886719 C 364.007812 171.328125 343.675781 171.59375 320.128906 171.59375 C 290.019531 171.59375 265.199219 170.976562 246.183594 169.742188 L 246.183594 175.246094 C 261.28125 177.140625 274.042969 185.554688 284.34375 200.355469 C 285.3125 201.71875 286.234375 203.128906 287.117188 204.625 C 288.21875 206.433594 289.273438 208.28125 290.328125 210.265625 C 291.035156 211.628906 291.78125 212.996094 292.441406 214.449219 C 293.804688 217.3125 295.171875 220.304688 296.402344 223.476562 L 303.753906 241.976562 L 342.882812 340.460938 L 355.382812 371.910156 C 355.339844 362 355.382812 352.003906 355.601562 341.960938 C 355.777344 337.292969 355.953125 332.753906 356.085938 328.175781 L 356.128906 327.382812 C 356.4375 317.472656 356.789062 307.472656 357.40625 297.652344 C 358.859375 274.261719 361.015625 253.472656 363.964844 234.226562 C 363.699219 233.476562 361.414062 226.871094 360.707031 224.445312 C 360.707031 224.402344 360.707031 224.402344 360.707031 224.359375 C 360.664062 224.136719 360.621094 223.960938 360.574219 223.785156 C 360.179688 222.421875 359.871094 221.1875 359.5625 219.910156 C 359.386719 219.160156 359.125 218.367188 358.992188 217.621094 C 358.992188 217.574219 358.949219 217.488281 358.949219 217.445312 C 358.726562 216.472656 358.640625 215.59375 358.464844 214.667969 C 358.289062 213.699219 358.066406 212.6875 357.980469 211.761719 C 357.933594 211.453125 357.890625 211.144531 357.847656 210.792969 C 357.847656 210.792969 357.847656 210.75 357.847656 210.75 C 357.671875 208.988281 357.539062 207.3125 357.539062 205.726562 C 357.539062 194.496094 362.601562 186.304688 372.238281 182.03125 C 373.605469 181.414062 375.1875 180.839844 376.816406 180.3125 C 378.226562 179.828125 379.765625 179.386719 381.394531 178.992188 C 382.847656 178.640625 384.386719 178.285156 386.015625 177.933594 C 389.800781 177.1875 394.027344 176.523438 398.738281 176.039062 C 400.058594 175.953125 401.464844 175.777344 402.917969 175.644531 Z M 402.917969 175.644531 " fill-opacity="1" fill-rule="nonzero"/><path fill="#000000" d="M 273.296875 202.644531 C 249.574219 199.605469 230.292969 198.109375 212.644531 198.019531 C 200.628906 197.929688 190.726562 198.503906 181.527344 199.824219 C 91.78125 212.464844 36.894531 255.324219 18.453125 327.160156 C 12.601562 349.007812 10.796875 368.433594 13.128906 384.90625 C 15.460938 401.421875 20.214844 416.265625 27.300781 428.90625 C 41.78125 455.023438 61.28125 465.949219 86.894531 462.382812 C 95.125 461.234375 99.132812 458.019531 101.113281 454.585938 C 98.648438 454.539062 96.226562 454.320312 93.804688 453.878906 C 69.996094 450.796875 52.828125 433.664062 43.144531 403.050781 C 40.152344 395.078125 38.039062 386.886719 36.894531 378.828125 C 33.023438 351.253906 37.730469 323.066406 50.847656 295.097656 C 73.296875 245.367188 115.285156 215.8125 175.671875 207.3125 C 192.132812 204.980469 207.671875 204.007812 221.800781 204.363281 C 229.722656 204.625 236.234375 204.890625 241.339844 205.066406 C 246.578125 205.285156 253.886719 205.902344 263.085938 206.917969 C 272.238281 207.929688 278.621094 208.679688 282.144531 209.074219 C 283.15625 209.207031 284.433594 209.382812 285.929688 209.601562 C 284.828125 207.621094 283.683594 205.773438 282.496094 204.007812 C 279.414062 203.523438 276.378906 203.039062 273.296875 202.644531 Z M 273.296875 202.644531 " fill-opacity="1" fill-rule="nonzero"/><g clip-path="url(#182bb751b0)"><path fill="#000000" d="M 794.511719 155.824219 C 791.300781 152.871094 787.117188 151.15625 781.835938 150.582031 C 754.105469 147.632812 725.585938 162.695312 697.019531 195.332031 C 675.496094 219.910156 655.601562 249.199219 637.511719 282.761719 C 630.910156 295.007812 624.574219 307.824219 618.457031 321.171875 C 618.457031 321.214844 618.410156 321.257812 618.410156 321.304688 C 595.523438 371.515625 573.867188 422.652344 554.019531 473.304688 C 534.257812 523.78125 516.519531 567.429688 501.203125 603.105469 C 487.6875 634.554688 478.488281 648.605469 471.667969 654.507812 C 470.65625 655.386719 469.597656 656.050781 468.453125 656.578125 C 467.355469 657.105469 466.210938 657.414062 465.066406 657.636719 C 457.496094 659 448.78125 654.464844 443.984375 648.78125 C 439.667969 643.671875 436.632812 637.507812 434.035156 631.382812 C 429.632812 621.078125 426.464844 610.242188 423.605469 599.40625 C 419.246094 582.757812 415.902344 565.84375 412.910156 548.886719 C 410.707031 536.332031 408.726562 523.738281 406.921875 511.140625 C 406.527344 508.320312 406.085938 505.5 405.691406 502.683594 C 405.382812 500.570312 405.074219 498.367188 404.808594 496.164062 C 399.527344 456.832031 395.304688 407.71875 392.179688 349.933594 C 391.296875 333.679688 390.8125 318.265625 390.636719 303.332031 C 390.59375 299.984375 390.59375 296.679688 390.59375 293.378906 C 390.59375 286.242188 390.683594 279.195312 390.859375 272.234375 C 391.253906 257.039062 392.179688 241.273438 393.628906 225.371094 L 394.027344 221.011719 L 398.429688 220.878906 C 420.082031 220.175781 442.355469 217.222656 461.324219 206.035156 C 478.09375 196.125 490.683594 177.671875 490.199219 157.804688 C 490.199219 156.96875 490.152344 156.132812 490.066406 155.296875 C 489.230469 144.371094 483.773438 130.894531 472.988281 126.445312 C 465.242188 123.230469 455.867188 124.550781 447.769531 125.566406 C 439.449219 126.578125 431.308594 128.910156 423.78125 132.566406 C 411.238281 138.601562 400.628906 148.117188 392.398438 159.304688 C 390.503906 161.859375 388.878906 164.5 387.292969 167.1875 C 388.832031 167.144531 390.285156 167.097656 391.738281 167.054688 C 395.742188 166.921875 399.484375 166.746094 403.003906 166.570312 C 404.546875 166.484375 406.042969 166.394531 407.496094 166.351562 C 409.34375 163.179688 411.324219 160.097656 413.65625 157.277344 C 425.453125 142.785156 445.214844 133.976562 463.921875 134.550781 C 473.253906 134.8125 479.457031 140.320312 480.472656 149.570312 C 480.910156 153.710938 480.558594 158.027344 479.941406 161.285156 C 475.058594 187.140625 449.96875 206.519531 425.234375 211.804688 C 417.707031 213.390625 409.609375 214.492188 400.496094 215.152344 L 394.511719 215.59375 L 395.480469 207.179688 C 395.566406 206.386719 395.65625 205.550781 395.742188 204.757812 C 396.667969 196.300781 398.472656 187.667969 401.421875 179.476562 C 400.011719 179.609375 398.605469 179.742188 397.285156 179.917969 C 392.398438 180.488281 388.085938 181.195312 384.300781 182.074219 C 382.671875 182.425781 381.175781 182.824219 379.765625 183.265625 C 376.378906 192.335938 373.957031 201.808594 371.976562 211.410156 L 371.09375 215.59375 L 366.824219 215.375 C 365.242188 215.285156 363.65625 215.152344 362.027344 215.066406 C 362.160156 215.726562 362.203125 216.296875 362.378906 217.003906 C 362.378906 217.046875 362.378906 217.089844 362.425781 217.136719 C 362.644531 218.191406 362.996094 219.335938 363.261719 220.4375 C 363.699219 220.484375 364.140625 220.527344 364.582031 220.570312 L 370.082031 220.921875 L 368.761719 228.410156 C 368.585938 229.292969 368.453125 230.128906 368.324219 231.007812 C 368.148438 232.199219 367.96875 233.386719 367.792969 234.578125 C 367.441406 236.867188 367.089844 239.246094 366.78125 241.582031 C 364.359375 258.890625 362.511719 277.433594 361.234375 298.089844 C 360.621094 307.957031 360.3125 318 359.960938 327.691406 C 359.785156 332.535156 359.652344 337.378906 359.433594 342.226562 C 359.167969 355.527344 359.125 368.695312 359.300781 381.777344 C 359.34375 385.125 359.386719 388.429688 359.476562 391.730469 C 360.355469 434.851562 363.570312 476.609375 369.160156 516.335938 C 375.804688 563.6875 387.203125 605.441406 403.050781 640.457031 C 410.355469 656.667969 420.566406 675.386719 437.425781 683.3125 C 441.871094 685.382812 447.988281 687.058594 452.917969 686.441406 C 460.753906 685.429688 467.003906 680.097656 472.019531 674.238281 C 472.898438 673.226562 473.738281 672.214844 474.527344 671.199219 C 474.660156 671.023438 474.75 670.894531 474.882812 670.714844 C 479.328125 664.902344 483.332031 658.734375 487.074219 652.394531 C 488.613281 649.792969 490.109375 647.152344 491.5625 644.507812 C 492.925781 642.042969 494.203125 639.53125 495.480469 637.023438 C 497.769531 632.574219 500.101562 627.949219 502.433594 623.234375 C 519.027344 589.714844 536.457031 549.589844 554.328125 503.652344 C 574.792969 451.148438 597.0625 397.808594 620.566406 345.175781 C 644.203125 292.234375 672.285156 247.484375 704.0625 212.203125 C 734.433594 178.464844 766.34375 161.902344 799.046875 162.871094 C 797.902344 159.875 796.40625 157.542969 794.511719 155.824219 Z M 794.511719 155.824219 " fill-opacity="1" fill-rule="nonzero"/></g><path fill="#000000" d="M 479.722656 670.539062 L 479.988281 669.835938 C 479.8125 670.054688 479.632812 670.320312 479.457031 670.539062 Z M 479.722656 670.539062 " fill-opacity="1" fill-rule="nonzero"/><path fill="#000000" d="M 657.761719 171.59375 C 631.042969 171.59375 604.238281 170.929688 577.960938 169.652344 L 577.960938 175.027344 C 598.253906 175.910156 613.304688 179.609375 623.867188 186.304688 C 635.664062 193.835938 641.652344 205.902344 641.652344 222.199219 C 641.652344 236.207031 636.765625 255.894531 626.730469 282.410156 L 587.207031 382.613281 C 596.226562 361.5625 605.472656 340.550781 614.976562 319.71875 C 621.402344 305.621094 628.09375 292.144531 635.09375 279.285156 L 650.761719 239.863281 C 664.757812 204.496094 684.125 183 708.289062 175.863281 L 708.289062 169.785156 C 694.378906 170.976562 677.390625 171.59375 657.761719 171.59375 Z M 657.761719 171.59375 " fill-opacity="1" fill-rule="nonzero"/><path fill="#000000" d="M 395.917969 349.757812 C 399.21875 410.671875 403.753906 461.941406 409.386719 502.199219 C 409.828125 505.28125 410.269531 508.1875 410.664062 511.140625 L 467.003906 653.011719 C 467.75 652.613281 468.5 652.21875 469.160156 651.644531 C 476.597656 645.214844 486.191406 628.390625 497.679688 601.652344 C 499 598.527344 500.410156 595.265625 501.773438 592.007812 L 394.511719 313.640625 C 394.773438 325.265625 395.257812 337.292969 395.917969 349.757812 Z M 395.917969 349.757812 " fill-opacity="1" fill-rule="nonzero"/><path fill="#000000" d="M 402.917969 175.644531 C 404.28125 175.511719 405.734375 175.425781 407.1875 175.292969 C 407.980469 175.246094 408.683594 175.160156 409.476562 175.117188 L 409.476562 169.699219 C 408.199219 169.785156 406.878906 169.832031 405.515625 169.917969 C 404.105469 170.007812 402.699219 170.050781 401.246094 170.136719 C 397.636719 170.316406 393.761719 170.445312 389.667969 170.625 C 388.21875 170.667969 386.71875 170.710938 385.222656 170.753906 C 383.816406 170.800781 382.40625 170.84375 380.910156 170.886719 C 364.007812 171.328125 343.675781 171.59375 320.128906 171.59375 C 290.019531 171.59375 265.199219 170.976562 246.183594 169.742188 L 246.183594 175.246094 C 261.28125 177.140625 274.042969 185.554688 284.34375 200.355469 C 285.3125 201.71875 286.234375 203.128906 287.117188 204.625 C 288.21875 206.433594 289.273438 208.28125 290.328125 210.265625 C 291.035156 211.628906 291.78125 212.996094 292.441406 214.449219 C 293.804688 217.3125 295.171875 220.304688 296.402344 223.476562 L 303.753906 241.976562 L 342.882812 340.460938 L 355.382812 371.910156 C 355.339844 362 355.382812 352.003906 355.601562 341.960938 C 355.777344 337.292969 355.953125 332.753906 356.085938 328.175781 L 356.128906 327.382812 C 356.4375 317.472656 356.789062 307.472656 357.40625 297.652344 C 358.859375 274.261719 361.015625 253.472656 363.964844 234.226562 C 363.699219 233.476562 361.414062 226.871094 360.707031 224.445312 C 360.707031 224.402344 360.707031 224.402344 360.707031 224.359375 C 360.664062 224.136719 360.621094 223.960938 360.574219 223.785156 C 360.179688 222.421875 359.871094 221.1875 359.5625 219.910156 C 359.386719 219.160156 359.125 218.367188 358.992188 217.621094 C 358.992188 217.574219 358.949219 217.488281 358.949219 217.445312 C 358.726562 216.472656 358.640625 215.59375 358.464844 214.667969 C 358.289062 213.699219 358.066406 212.6875 357.980469 211.761719 C 357.933594 211.453125 357.890625 211.144531 357.847656 210.792969 C 357.847656 210.792969 357.847656 210.75 357.847656 210.75 C 357.671875 208.988281 357.539062 207.3125 357.539062 205.726562 C 357.539062 194.496094 362.601562 186.304688 372.238281 182.03125 C 373.605469 181.414062 375.1875 180.839844 376.816406 180.3125 C 378.226562 179.828125 379.765625 179.386719 381.394531 178.992188 C 382.847656 178.640625 384.386719 178.285156 386.015625 177.933594 C 389.800781 177.1875 394.027344 176.523438 398.738281 176.039062 C 400.058594 175.953125 401.464844 175.777344 402.917969 175.644531 Z M 402.917969 175.644531 " fill-opacity="1" fill-rule="nonzero"/></svg>