<svg xmlns="http://www.w3.org/2000/svg" xmlns:xlink="http://www.w3.org/1999/xlink" width="1080" zoomAndPan="magnify" viewBox="0 0 810 809.999993" height="1080" preserveAspectRatio="xMidYMid meet" version="1.0"><defs><clipPath id="bd69f296b3"><path d="M 173 435 L 638 435 L 638 796.496094 L 173 796.496094 Z M 173 435 " clip-rule="nonzero"/></clipPath><clipPath id="04c7885634"><path d="M 173 23.246094 L 638 23.246094 L 638 384 L 173 384 Z M 173 23.246094 " clip-rule="nonzero"/></clipPath><clipPath id="1175b6fcb4"><path d="M 431 177 L 792.164062 177 L 792.164062 643 L 431 643 Z M 431 177 " clip-rule="nonzero"/></clipPath><clipPath id="7bf3f58d3d"><path d="M 18.914062 177 L 380 177 L 380 643 L 18.914062 643 Z M 18.914062 177 " clip-rule="nonzero"/></clipPath></defs><g clip-path="url(#bd69f296b3)"><path fill="#000000" d="M 278.59375 796.496094 L 278.59375 787.84375 C 277.96875 787.839844 277.339844 787.820312 276.714844 787.78125 C 276.085938 787.742188 275.464844 787.679688 274.839844 787.601562 C 274.21875 787.523438 273.597656 787.425781 272.984375 787.308594 C 272.367188 787.191406 271.753906 787.054688 271.148438 786.898438 C 270.539062 786.742188 269.9375 786.566406 269.339844 786.371094 C 268.742188 786.179688 268.152344 785.96875 267.570312 785.738281 C 266.984375 785.507812 266.410156 785.257812 265.839844 784.992188 C 265.273438 784.726562 264.714844 784.441406 264.164062 784.140625 C 263.613281 783.839844 263.074219 783.519531 262.542969 783.1875 C 262.011719 782.851562 261.492188 782.5 260.984375 782.132812 C 260.472656 781.765625 259.976562 781.382812 259.492188 780.984375 C 259.007812 780.585938 258.535156 780.171875 258.078125 779.746094 C 257.617188 779.316406 257.171875 778.875 256.742188 778.417969 C 256.308594 777.964844 255.894531 777.496094 255.492188 777.011719 C 255.089844 776.53125 254.703125 776.039062 254.332031 775.53125 C 253.960938 775.027344 253.605469 774.507812 253.265625 773.980469 C 252.925781 773.453125 252.605469 772.914062 252.300781 772.367188 C 251.992188 771.820312 251.707031 771.261719 251.433594 770.695312 C 251.164062 770.128906 250.910156 769.554688 250.675781 768.976562 C 250.441406 768.394531 250.226562 767.804688 250.027344 767.207031 C 249.828125 766.613281 249.648438 766.011719 249.488281 765.40625 C 249.328125 764.800781 249.1875 764.1875 249.0625 763.574219 C 248.941406 762.957031 248.839844 762.339844 248.753906 761.71875 C 248.671875 761.09375 248.605469 760.472656 248.5625 759.847656 C 248.515625 759.21875 248.492188 758.59375 248.484375 757.964844 C 248.480469 757.339844 248.492188 756.710938 248.527344 756.085938 C 248.558594 755.457031 248.613281 754.832031 248.683594 754.210938 C 248.757812 753.585938 248.847656 752.964844 248.960938 752.347656 C 249.070312 751.730469 249.203125 751.117188 249.351562 750.507812 C 249.5 749.898438 249.667969 749.292969 249.855469 748.695312 C 250.042969 748.097656 250.246094 747.503906 250.472656 746.917969 C 250.695312 746.332031 250.9375 745.753906 251.199219 745.183594 L 336.332031 559.054688 L 420.167969 748.800781 C 420.398438 749.328125 420.617188 749.863281 420.8125 750.402344 C 421.011719 750.941406 421.195312 751.488281 421.359375 752.039062 C 421.523438 752.589844 421.671875 753.148438 421.800781 753.707031 C 421.929688 754.269531 422.042969 754.832031 422.140625 755.398438 C 422.234375 755.96875 422.3125 756.535156 422.371094 757.109375 C 422.433594 757.683594 422.472656 758.253906 422.5 758.832031 C 422.523438 759.40625 422.527344 759.980469 422.519531 760.554688 C 422.507812 761.132812 422.476562 761.707031 422.429688 762.28125 C 422.382812 762.851562 422.316406 763.425781 422.234375 763.996094 C 422.152344 764.5625 422.054688 765.128906 421.9375 765.695312 C 421.816406 766.257812 421.683594 766.816406 421.53125 767.371094 C 421.378906 767.925781 421.210938 768.476562 421.023438 769.019531 C 420.835938 769.566406 420.632812 770.101562 420.414062 770.636719 C 420.195312 771.167969 419.957031 771.691406 419.707031 772.207031 C 419.453125 772.726562 419.183594 773.234375 418.902344 773.734375 C 418.617188 774.234375 418.320312 774.726562 418.003906 775.210938 C 417.691406 775.691406 417.359375 776.164062 417.015625 776.625 C 416.675781 777.085938 416.316406 777.539062 415.945312 777.976562 C 415.574219 778.417969 415.1875 778.84375 414.789062 779.257812 C 414.390625 779.675781 413.980469 780.078125 413.558594 780.46875 C 413.136719 780.859375 412.699219 781.234375 412.253906 781.597656 C 411.808594 781.960938 411.351562 782.3125 410.882812 782.644531 C 410.414062 782.980469 409.9375 783.300781 409.449219 783.605469 C 408.960938 783.910156 408.464844 784.199219 407.957031 784.476562 C 407.453125 784.75 406.9375 785.007812 406.417969 785.25 C 405.894531 785.492188 405.367188 785.71875 404.828125 785.929688 C 404.292969 786.136719 403.753906 786.332031 403.203125 786.507812 C 402.65625 786.683594 402.101562 786.84375 401.546875 786.984375 C 400.988281 787.125 400.425781 787.25 399.859375 787.359375 C 399.296875 787.464844 398.726562 787.554688 398.15625 787.625 C 397.585938 787.699219 397.011719 787.75 396.4375 787.789062 C 395.863281 787.824219 395.289062 787.84375 394.714844 787.84375 L 394.714844 796.496094 L 637.730469 796.496094 L 637.730469 787.84375 C 634.976562 787.84375 632.226562 787.746094 629.480469 787.554688 C 626.734375 787.363281 624 787.074219 621.273438 786.691406 C 618.546875 786.304688 615.835938 785.828125 613.144531 785.253906 C 610.453125 784.679688 607.78125 784.015625 605.136719 783.253906 C 602.492188 782.496094 599.875 781.644531 597.289062 780.699219 C 594.703125 779.757812 592.152344 778.722656 589.636719 777.601562 C 587.121094 776.480469 584.652344 775.273438 582.222656 773.980469 C 579.792969 772.683594 577.410156 771.308594 575.078125 769.847656 C 572.742188 768.386719 570.464844 766.84375 568.238281 765.222656 C 566.011719 763.605469 563.847656 761.90625 561.738281 760.136719 C 559.632812 758.363281 557.589844 756.519531 555.613281 754.605469 C 553.632812 752.691406 551.726562 750.707031 549.886719 748.660156 C 548.046875 746.613281 546.28125 744.5 544.589844 742.328125 C 542.898438 740.15625 541.285156 737.929688 539.75 735.644531 C 538.214844 733.359375 536.757812 731.023438 535.386719 728.636719 C 534.015625 726.25 532.726562 723.820312 531.523438 721.34375 L 392.933594 435.789062 L 376.269531 435.789062 L 232.128906 750.101562 C 231.488281 751.5 230.800781 752.871094 230.0625 754.21875 C 229.324219 755.566406 228.535156 756.886719 227.703125 758.179688 C 226.871094 759.472656 225.992188 760.734375 225.070312 761.964844 C 224.148438 763.195312 223.183594 764.390625 222.175781 765.550781 C 221.167969 766.710938 220.121094 767.835938 219.03125 768.921875 C 217.941406 770.007812 216.816406 771.054688 215.65625 772.058594 C 214.492188 773.066406 213.296875 774.027344 212.0625 774.949219 C 210.832031 775.871094 209.570312 776.746094 208.277344 777.574219 C 206.980469 778.40625 205.660156 779.1875 204.3125 779.925781 C 202.960938 780.660156 201.585938 781.347656 200.1875 781.988281 C 198.789062 782.625 197.371094 783.210938 195.929688 783.75 C 194.488281 784.285156 193.03125 784.769531 191.554688 785.203125 C 190.078125 785.636719 188.589844 786.015625 187.089844 786.34375 C 185.585938 786.671875 184.074219 786.941406 182.550781 787.160156 C 181.03125 787.378906 179.503906 787.542969 177.96875 787.65625 C 176.4375 787.765625 174.898438 787.820312 173.363281 787.820312 L 173.363281 796.496094 Z M 278.59375 796.496094 " fill-opacity="1" fill-rule="nonzero"/></g><g clip-path="url(#04c7885634)"><path fill="#000000" d="M 532.484375 23.246094 L 532.484375 31.898438 C 533.109375 31.898438 533.738281 31.917969 534.363281 31.960938 C 534.988281 32 535.613281 32.058594 536.238281 32.136719 C 536.859375 32.21875 537.476562 32.316406 538.09375 32.433594 C 538.710938 32.550781 539.324219 32.6875 539.929688 32.84375 C 540.539062 33 541.140625 33.175781 541.738281 33.367188 C 542.335938 33.5625 542.925781 33.773438 543.507812 34.003906 C 544.09375 34.234375 544.667969 34.484375 545.234375 34.75 C 545.804688 35.015625 546.363281 35.300781 546.914062 35.601562 C 547.464844 35.902344 548.003906 36.21875 548.535156 36.554688 C 549.066406 36.890625 549.585938 37.242188 550.09375 37.609375 C 550.601562 37.976562 551.101562 38.359375 551.585938 38.757812 C 552.070312 39.15625 552.542969 39.570312 553 39.996094 C 553.460938 40.425781 553.902344 40.867188 554.335938 41.320312 C 554.765625 41.777344 555.183594 42.246094 555.585938 42.726562 C 555.988281 43.210938 556.375 43.703125 556.746094 44.207031 C 557.117188 44.714844 557.472656 45.230469 557.8125 45.757812 C 558.152344 46.289062 558.472656 46.824219 558.777344 47.375 C 559.085938 47.921875 559.371094 48.476562 559.644531 49.042969 C 559.914062 49.609375 560.167969 50.183594 560.402344 50.765625 C 560.636719 51.347656 560.851562 51.9375 561.050781 52.53125 C 561.25 53.128906 561.429688 53.726562 561.589844 54.335938 C 561.75 54.941406 561.890625 55.550781 562.011719 56.167969 C 562.136719 56.785156 562.238281 57.402344 562.324219 58.023438 C 562.40625 58.644531 562.472656 59.269531 562.515625 59.894531 C 562.5625 60.519531 562.585938 61.148438 562.59375 61.773438 C 562.597656 62.402344 562.585938 63.03125 562.550781 63.65625 C 562.519531 64.28125 562.464844 64.90625 562.394531 65.53125 C 562.320312 66.152344 562.230469 66.773438 562.117188 67.390625 C 562.007812 68.007812 561.875 68.625 561.726562 69.234375 C 561.578125 69.84375 561.410156 70.445312 561.222656 71.046875 C 561.035156 71.644531 560.828125 72.238281 560.605469 72.824219 C 560.382812 73.410156 560.140625 73.988281 559.878906 74.558594 L 474.746094 260.6875 L 390.910156 70.941406 C 390.675781 70.414062 390.460938 69.878906 390.261719 69.339844 C 390.066406 68.796875 389.882812 68.253906 389.71875 67.703125 C 389.554688 67.148438 389.40625 66.59375 389.277344 66.035156 C 389.144531 65.472656 389.035156 64.910156 388.9375 64.339844 C 388.84375 63.773438 388.765625 63.203125 388.707031 62.632812 C 388.644531 62.058594 388.605469 61.484375 388.578125 60.910156 C 388.554688 60.335938 388.546875 59.761719 388.558594 59.183594 C 388.570312 58.609375 388.601562 58.035156 388.648438 57.460938 C 388.695312 56.886719 388.757812 56.316406 388.839844 55.746094 C 388.925781 55.175781 389.023438 54.609375 389.140625 54.046875 C 389.257812 53.484375 389.394531 52.925781 389.546875 52.371094 C 389.699219 51.816406 389.867188 51.265625 390.054688 50.71875 C 390.242188 50.175781 390.445312 49.636719 390.664062 49.105469 C 390.882812 48.574219 391.121094 48.050781 391.371094 47.53125 C 391.625 47.015625 391.890625 46.507812 392.175781 46.003906 C 392.460938 45.503906 392.757812 45.011719 393.074219 44.53125 C 393.386719 44.050781 393.714844 43.578125 394.058594 43.117188 C 394.402344 42.652344 394.761719 42.203125 395.132812 41.765625 C 395.503906 41.324219 395.890625 40.898438 396.285156 40.480469 C 396.683594 40.066406 397.09375 39.664062 397.519531 39.273438 C 397.941406 38.882812 398.375 38.503906 398.824219 38.140625 C 399.269531 37.777344 399.726562 37.429688 400.195312 37.09375 C 400.664062 36.761719 401.140625 36.441406 401.628906 36.136719 C 402.117188 35.828125 402.613281 35.539062 403.121094 35.265625 C 403.625 34.992188 404.140625 34.734375 404.660156 34.492188 C 405.183594 34.246094 405.710938 34.023438 406.246094 33.8125 C 406.785156 33.601562 407.324219 33.410156 407.875 33.234375 C 408.421875 33.058594 408.972656 32.898438 409.53125 32.757812 C 410.089844 32.613281 410.652344 32.492188 411.214844 32.382812 C 411.78125 32.277344 412.351562 32.1875 412.921875 32.113281 C 413.492188 32.042969 414.066406 31.988281 414.640625 31.953125 C 415.214844 31.917969 415.789062 31.898438 416.363281 31.898438 L 416.363281 23.246094 L 173.347656 23.246094 L 173.347656 31.898438 C 176.101562 31.898438 178.851562 31.996094 181.597656 32.1875 C 184.34375 32.378906 187.078125 32.667969 189.804688 33.050781 C 192.53125 33.433594 195.238281 33.914062 197.933594 34.488281 C 200.625 35.058594 203.292969 35.726562 205.941406 36.488281 C 208.585938 37.246094 211.203125 38.097656 213.789062 39.039062 C 216.375 39.984375 218.925781 41.015625 221.441406 42.136719 C 223.953125 43.257812 226.425781 44.46875 228.855469 45.761719 C 231.285156 47.054688 233.667969 48.433594 236 49.894531 C 238.335938 51.355469 240.613281 52.894531 242.839844 54.515625 C 245.066406 56.136719 247.230469 57.832031 249.339844 59.605469 C 251.445312 61.378906 253.488281 63.222656 255.464844 65.136719 C 257.441406 67.050781 259.351562 69.03125 261.191406 71.082031 C 263.03125 73.128906 264.796875 75.238281 266.488281 77.410156 C 268.179688 79.582031 269.792969 81.8125 271.328125 84.097656 C 272.863281 86.378906 274.320312 88.714844 275.691406 91.101562 C 277.0625 93.488281 278.351562 95.921875 279.554688 98.398438 L 418.144531 383.949219 L 434.804688 383.949219 L 578.949219 69.640625 C 579.589844 68.242188 580.277344 66.871094 581.015625 65.519531 C 581.753906 64.171875 582.539062 62.851562 583.375 61.558594 C 584.207031 60.265625 585.082031 59.007812 586.007812 57.777344 C 586.929688 56.546875 587.894531 55.351562 588.902344 54.191406 C 589.910156 53.03125 590.957031 51.90625 592.046875 50.820312 C 593.132812 49.734375 594.261719 48.6875 595.421875 47.679688 C 596.585938 46.675781 597.78125 45.710938 599.015625 44.792969 C 600.246094 43.871094 601.507812 42.996094 602.800781 42.164062 C 604.09375 41.335938 605.417969 40.550781 606.765625 39.816406 C 608.117188 39.078125 609.492188 38.390625 610.890625 37.753906 C 612.289062 37.117188 613.707031 36.527344 615.148438 35.992188 C 616.589844 35.453125 618.046875 34.96875 619.523438 34.535156 C 621 34.105469 622.488281 33.722656 623.988281 33.398438 C 625.492188 33.070312 627.003906 32.796875 628.527344 32.578125 C 630.046875 32.359375 631.574219 32.195312 633.109375 32.085938 C 634.640625 31.976562 636.175781 31.921875 637.714844 31.921875 L 637.714844 23.246094 Z M 532.484375 23.246094 " fill-opacity="1" fill-rule="nonzero"/></g><g clip-path="url(#1175b6fcb4)"><path fill="#000000" d="M 792.164062 536.816406 L 783.511719 536.816406 C 783.511719 537.441406 783.488281 538.070312 783.449219 538.695312 C 783.410156 539.320312 783.351562 539.945312 783.269531 540.566406 C 783.191406 541.191406 783.09375 541.808594 782.976562 542.425781 C 782.859375 543.042969 782.722656 543.65625 782.566406 544.261719 C 782.410156 544.871094 782.234375 545.472656 782.039062 546.070312 C 781.847656 546.667969 781.636719 547.257812 781.40625 547.839844 C 781.175781 548.425781 780.925781 549 780.660156 549.566406 C 780.394531 550.136719 780.109375 550.695312 779.808594 551.246094 C 779.507812 551.796875 779.191406 552.335938 778.855469 552.867188 C 778.519531 553.398438 778.167969 553.917969 777.800781 554.425781 C 777.433594 554.933594 777.050781 555.429688 776.652344 555.917969 C 776.253906 556.402344 775.839844 556.871094 775.414062 557.332031 C 774.984375 557.789062 774.542969 558.234375 774.085938 558.667969 C 773.632812 559.097656 773.164062 559.515625 772.683594 559.917969 C 772.199219 560.320312 771.707031 560.707031 771.199219 561.078125 C 770.695312 561.449219 770.179688 561.804688 769.648438 562.144531 C 769.121094 562.480469 768.585938 562.804688 768.035156 563.109375 C 767.488281 563.414062 766.929688 563.703125 766.363281 563.972656 C 765.796875 564.246094 765.226562 564.496094 764.644531 564.734375 C 764.0625 564.96875 763.472656 565.183594 762.878906 565.382812 C 762.28125 565.582031 761.679688 565.757812 761.074219 565.921875 C 760.46875 566.082031 759.855469 566.222656 759.242188 566.34375 C 758.625 566.46875 758.007812 566.570312 757.386719 566.65625 C 756.761719 566.738281 756.140625 566.804688 755.515625 566.847656 C 754.886719 566.894531 754.261719 566.917969 753.632812 566.925781 C 753.007812 566.929688 752.378906 566.914062 751.753906 566.882812 C 751.125 566.847656 750.5 566.796875 749.878906 566.722656 C 749.253906 566.652344 748.632812 566.558594 748.015625 566.449219 C 747.398438 566.339844 746.785156 566.207031 746.175781 566.058594 C 745.566406 565.910156 744.964844 565.742188 744.363281 565.554688 C 743.765625 565.367188 743.171875 565.160156 742.585938 564.9375 C 742 564.714844 741.421875 564.472656 740.851562 564.210938 L 554.722656 479.078125 L 744.46875 395.242188 C 744.996094 395.007812 745.53125 394.792969 746.070312 394.59375 C 746.609375 394.398438 747.15625 394.214844 747.707031 394.050781 C 748.257812 393.886719 748.816406 393.738281 749.375 393.609375 C 749.9375 393.476562 750.5 393.363281 751.066406 393.269531 C 751.636719 393.175781 752.207031 393.097656 752.777344 393.039062 C 753.351562 392.976562 753.925781 392.933594 754.5 392.910156 C 755.074219 392.886719 755.648438 392.878906 756.222656 392.890625 C 756.800781 392.902344 757.375 392.933594 757.949219 392.980469 C 758.523438 393.027344 759.09375 393.089844 759.664062 393.171875 C 760.230469 393.253906 760.796875 393.355469 761.363281 393.472656 C 761.925781 393.589844 762.484375 393.726562 763.039062 393.878906 C 763.59375 394.03125 764.144531 394.199219 764.6875 394.386719 C 765.234375 394.574219 765.769531 394.777344 766.304688 394.996094 C 766.835938 395.214844 767.359375 395.449219 767.878906 395.703125 C 768.394531 395.957031 768.902344 396.222656 769.402344 396.507812 C 769.90625 396.792969 770.394531 397.089844 770.878906 397.40625 C 771.359375 397.71875 771.832031 398.046875 772.292969 398.390625 C 772.753906 398.734375 773.207031 399.09375 773.644531 399.464844 C 774.085938 399.835938 774.511719 400.21875 774.929688 400.617188 C 775.34375 401.015625 775.746094 401.425781 776.136719 401.851562 C 776.527344 402.273438 776.902344 402.707031 777.265625 403.15625 C 777.628906 403.601562 777.980469 404.058594 778.3125 404.527344 C 778.648438 404.996094 778.96875 405.472656 779.273438 405.960938 C 779.578125 406.449219 779.867188 406.945312 780.144531 407.449219 C 780.417969 407.957031 780.675781 408.46875 780.917969 408.992188 C 781.160156 409.515625 781.386719 410.042969 781.597656 410.578125 C 781.808594 411.113281 782 411.65625 782.175781 412.203125 C 782.351562 412.753906 782.511719 413.304688 782.652344 413.863281 C 782.792969 414.421875 782.917969 414.984375 783.027344 415.546875 C 783.132812 416.113281 783.222656 416.683594 783.292969 417.253906 C 783.367188 417.824219 783.417969 418.398438 783.457031 418.972656 C 783.492188 419.546875 783.511719 420.121094 783.511719 420.695312 L 792.164062 420.695312 L 792.164062 177.679688 L 783.511719 177.679688 C 783.511719 180.433594 783.414062 183.179688 783.222656 185.929688 C 783.03125 188.675781 782.742188 191.410156 782.359375 194.136719 C 781.976562 196.863281 781.496094 199.570312 780.921875 202.265625 C 780.347656 204.957031 779.683594 207.625 778.921875 210.273438 C 778.164062 212.917969 777.3125 215.535156 776.367188 218.121094 C 775.425781 220.707031 774.394531 223.257812 773.273438 225.773438 C 772.148438 228.285156 770.941406 230.757812 769.648438 233.1875 C 768.351562 235.617188 766.976562 238 765.515625 240.332031 C 764.054688 242.664062 762.511719 244.945312 760.890625 247.171875 C 759.273438 249.394531 757.574219 251.5625 755.804688 253.667969 C 754.03125 255.777344 752.1875 257.820312 750.273438 259.796875 C 748.359375 261.773438 746.378906 263.683594 744.328125 265.523438 C 742.28125 267.363281 740.171875 269.128906 738 270.820312 C 735.828125 272.511719 733.597656 274.125 731.3125 275.660156 C 729.027344 277.195312 726.691406 278.648438 724.304688 280.023438 C 721.917969 281.394531 719.488281 282.683594 717.011719 283.886719 L 431.457031 422.472656 L 431.457031 439.136719 L 745.769531 583.28125 C 747.167969 583.921875 748.539062 584.609375 749.886719 585.347656 C 751.238281 586.085938 752.558594 586.871094 753.847656 587.703125 C 755.140625 588.539062 756.402344 589.414062 757.632812 590.339844 C 758.863281 591.261719 760.058594 592.226562 761.21875 593.234375 C 762.378906 594.242188 763.503906 595.289062 764.589844 596.378906 C 765.675781 597.464844 766.722656 598.589844 767.726562 599.753906 C 768.734375 600.917969 769.695312 602.113281 770.617188 603.34375 C 771.539062 604.578125 772.414062 605.839844 773.242188 607.132812 C 774.074219 608.425781 774.859375 609.75 775.59375 611.097656 C 776.332031 612.449219 777.015625 613.824219 777.65625 615.222656 C 778.292969 616.621094 778.882812 618.039062 779.417969 619.480469 C 779.953125 620.921875 780.441406 622.378906 780.871094 623.855469 C 781.304688 625.328125 781.683594 626.820312 782.011719 628.320312 C 782.339844 629.824219 782.609375 631.335938 782.828125 632.855469 C 783.046875 634.378906 783.214844 635.90625 783.324219 637.441406 C 783.433594 638.972656 783.488281 640.507812 783.488281 642.046875 L 792.164062 642.046875 Z M 792.164062 536.816406 " fill-opacity="1" fill-rule="nonzero"/></g><g clip-path="url(#7bf3f58d3d)"><path fill="#000000" d="M 18.914062 282.925781 L 27.566406 282.925781 C 27.566406 282.296875 27.589844 281.671875 27.628906 281.046875 C 27.667969 280.417969 27.726562 279.796875 27.808594 279.171875 C 27.886719 278.550781 27.984375 277.929688 28.101562 277.3125 C 28.21875 276.699219 28.355469 276.085938 28.511719 275.476562 C 28.667969 274.871094 28.84375 274.269531 29.035156 273.671875 C 29.230469 273.074219 29.441406 272.484375 29.671875 271.902344 C 29.902344 271.316406 30.152344 270.742188 30.417969 270.171875 C 30.683594 269.605469 30.96875 269.046875 31.269531 268.496094 C 31.570312 267.945312 31.886719 267.402344 32.222656 266.875 C 32.558594 266.34375 32.910156 265.824219 33.277344 265.316406 C 33.644531 264.804688 34.027344 264.308594 34.425781 263.824219 C 34.824219 263.339844 35.238281 262.867188 35.664062 262.410156 C 36.09375 261.949219 36.535156 261.503906 36.988281 261.074219 C 37.445312 260.640625 37.914062 260.226562 38.394531 259.824219 C 38.878906 259.421875 39.371094 259.035156 39.875 258.664062 C 40.382812 258.292969 40.898438 257.9375 41.425781 257.597656 C 41.957031 257.257812 42.492188 256.9375 43.042969 256.628906 C 43.589844 256.324219 44.148438 256.035156 44.710938 255.765625 C 45.277344 255.496094 45.851562 255.242188 46.433594 255.007812 C 47.015625 254.773438 47.605469 254.554688 48.199219 254.359375 C 48.796875 254.160156 49.398438 253.980469 50.003906 253.820312 C 50.609375 253.660156 51.222656 253.519531 51.835938 253.394531 C 52.453125 253.273438 53.070312 253.171875 53.691406 253.085938 C 54.3125 253.003906 54.9375 252.9375 55.5625 252.894531 C 56.1875 252.847656 56.816406 252.824219 57.445312 252.816406 C 58.070312 252.8125 58.699219 252.824219 59.324219 252.859375 C 59.949219 252.890625 60.574219 252.945312 61.199219 253.015625 C 61.824219 253.089844 62.441406 253.179688 63.058594 253.292969 C 63.679688 253.402344 64.292969 253.53125 64.902344 253.683594 C 65.511719 253.832031 66.113281 254 66.714844 254.1875 C 67.3125 254.375 67.90625 254.578125 68.492188 254.804688 C 69.078125 255.027344 69.65625 255.269531 70.226562 255.53125 L 256.355469 340.664062 L 66.609375 424.5 C 66.082031 424.730469 65.546875 424.945312 65.007812 425.144531 C 64.46875 425.34375 63.921875 425.527344 63.371094 425.691406 C 62.820312 425.855469 62.261719 426.003906 61.703125 426.132812 C 61.140625 426.261719 60.578125 426.375 60.007812 426.472656 C 59.441406 426.566406 58.871094 426.644531 58.300781 426.703125 C 57.726562 426.761719 57.152344 426.804688 56.578125 426.828125 C 56.003906 426.855469 55.429688 426.859375 54.851562 426.847656 C 54.277344 426.839844 53.703125 426.808594 53.128906 426.761719 C 52.554688 426.714844 51.984375 426.648438 51.414062 426.566406 C 50.84375 426.484375 50.277344 426.386719 49.714844 426.265625 C 49.152344 426.148438 48.59375 426.015625 48.039062 425.863281 C 47.484375 425.710938 46.933594 425.542969 46.390625 425.355469 C 45.84375 425.167969 45.304688 424.964844 44.773438 424.746094 C 44.242188 424.527344 43.71875 424.289062 43.199219 424.039062 C 42.683594 423.785156 42.175781 423.515625 41.671875 423.234375 C 41.171875 422.949219 40.683594 422.648438 40.199219 422.335938 C 39.71875 422.023438 39.246094 421.691406 38.785156 421.347656 C 38.324219 421.003906 37.871094 420.648438 37.433594 420.277344 C 36.992188 419.90625 36.566406 419.519531 36.148438 419.121094 C 35.734375 418.722656 35.332031 418.3125 34.941406 417.890625 C 34.550781 417.46875 34.175781 417.03125 33.8125 416.585938 C 33.449219 416.140625 33.097656 415.683594 32.761719 415.214844 C 32.429688 414.746094 32.109375 414.269531 31.804688 413.78125 C 31.5 413.292969 31.207031 412.796875 30.933594 412.289062 C 30.660156 411.785156 30.402344 411.269531 30.160156 410.75 C 29.917969 410.226562 29.691406 409.699219 29.480469 409.160156 C 29.269531 408.625 29.078125 408.082031 28.902344 407.535156 C 28.726562 406.988281 28.566406 406.433594 28.425781 405.878906 C 28.28125 405.320312 28.160156 404.757812 28.050781 404.191406 C 27.945312 403.628906 27.855469 403.058594 27.785156 402.488281 C 27.710938 401.917969 27.65625 401.34375 27.621094 400.769531 C 27.585938 400.195312 27.566406 399.621094 27.566406 399.042969 L 18.914062 399.042969 L 18.914062 642.0625 L 27.566406 642.0625 C 27.566406 639.308594 27.664062 636.558594 27.855469 633.8125 C 28.046875 631.066406 28.335938 628.332031 28.71875 625.605469 C 29.101562 622.878906 29.582031 620.167969 30.15625 617.476562 C 30.726562 614.785156 31.394531 612.113281 32.15625 609.46875 C 32.914062 606.824219 33.765625 604.207031 34.710938 601.621094 C 35.652344 599.035156 36.683594 596.484375 37.804688 593.96875 C 38.925781 591.453125 40.136719 588.984375 41.429688 586.554688 C 42.722656 584.125 44.101562 581.742188 45.5625 579.410156 C 47.023438 577.074219 48.566406 574.796875 50.183594 572.570312 C 51.804688 570.34375 53.5 568.179688 55.273438 566.070312 C 57.046875 563.964844 58.890625 561.921875 60.804688 559.945312 C 62.71875 557.964844 64.699219 556.058594 66.75 554.21875 C 68.796875 552.378906 70.90625 550.613281 73.078125 548.921875 C 75.25 547.230469 77.480469 545.617188 79.765625 544.082031 C 82.050781 542.542969 84.386719 541.089844 86.769531 539.71875 C 89.15625 538.347656 91.589844 537.058594 94.066406 535.855469 L 379.621094 397.265625 L 379.621094 380.601562 L 65.308594 236.460938 C 63.910156 235.820312 62.539062 235.132812 61.191406 234.394531 C 59.839844 233.652344 58.519531 232.867188 57.226562 232.035156 C 55.9375 231.203125 54.675781 230.324219 53.445312 229.402344 C 52.214844 228.480469 51.019531 227.515625 49.859375 226.507812 C 48.699219 225.5 47.574219 224.449219 46.488281 223.363281 C 45.402344 222.273438 44.355469 221.148438 43.351562 219.988281 C 42.34375 218.824219 41.378906 217.625 40.460938 216.394531 C 39.539062 215.164062 38.664062 213.902344 37.832031 212.609375 C 37.003906 211.3125 36.21875 209.992188 35.484375 208.640625 C 34.746094 207.292969 34.0625 205.917969 33.421875 204.519531 C 32.785156 203.121094 32.195312 201.699219 31.660156 200.261719 C 31.125 198.820312 30.636719 197.363281 30.207031 195.886719 C 29.773438 194.410156 29.394531 192.921875 29.066406 191.421875 C 28.738281 189.917969 28.464844 188.40625 28.246094 186.882812 C 28.027344 185.363281 27.863281 183.835938 27.753906 182.300781 C 27.644531 180.765625 27.589844 179.230469 27.589844 177.695312 L 18.914062 177.695312 Z M 18.914062 282.925781 " fill-opacity="1" fill-rule="nonzero"/></g></svg>