<svg width="50" height="50" viewBox="0 0 50 50" fill="none" xmlns="http://www.w3.org/2000/svg">
<path d="M42.5041 7.27014C37.8355 2.57781 31.6108 0 24.9821 0C11.3328 0 0.213827 11.119 0.201948 24.7684C0.201948 29.1399 1.34236 33.3927 3.50439 37.1585L0 50L13.1385 46.555C16.7617 48.527 20.8363 49.5723 24.9821 49.5723H24.994C38.6433 49.5723 49.7623 38.4533 49.7742 24.7921C49.7623 18.1753 47.1845 11.9506 42.5041 7.27014ZM24.9821 45.379C21.2758 45.379 17.6526 44.3811 14.4927 42.5042L13.7443 42.0527L5.95152 44.096L8.0304 36.4932L7.54334 35.7092C5.47635 32.4305 4.39533 28.641 4.39533 24.7565C4.39533 13.4236 13.6374 4.18152 24.994 4.18152C30.4941 4.18152 35.6616 6.33167 39.558 10.2162C43.4425 14.1126 45.5808 19.2801 45.5808 24.7802C45.5689 36.1487 36.3269 45.379 24.9821 45.379ZM36.2793 29.9596C35.6616 29.6508 32.6205 28.154 32.0503 27.9401C31.4801 27.7382 31.0643 27.6313 30.6604 28.249C30.2447 28.8667 29.0567 30.2685 28.7003 30.6724C28.344 31.0881 27.9757 31.1357 27.358 30.8268C26.7403 30.5179 24.7445 29.8646 22.3806 27.7501C20.5393 26.1107 19.3038 24.0794 18.9356 23.4616C18.5792 22.8439 18.8999 22.5113 19.2088 22.2024C19.482 21.9292 19.8265 21.4778 20.1354 21.1214C20.4442 20.765 20.5512 20.5037 20.7531 20.0879C20.9551 19.6721 20.86 19.3158 20.7056 19.0069C20.5512 18.698 19.3157 15.645 18.793 14.4096C18.2941 13.1979 17.7833 13.3642 17.4032 13.3523C17.0468 13.3286 16.631 13.3286 16.2152 13.3286C15.7994 13.3286 15.1342 13.483 14.564 14.1007C13.9938 14.7185 12.402 16.2153 12.402 19.2682C12.402 22.3212 14.6234 25.2554 14.9323 25.6712C15.2411 26.087 19.292 32.3355 25.5048 35.0202C26.9779 35.6617 28.1301 36.0418 29.033 36.3269C30.5179 36.8021 31.8602 36.7308 32.9294 36.5764C34.1173 36.3982 36.5882 35.0796 37.1109 33.6303C37.6217 32.181 37.6217 30.9456 37.4673 30.6842C37.3128 30.4229 36.8971 30.2685 36.2793 29.9596Z" fill="black"/>
</svg>
